<?xml version="1.0" encoding="utf-8"?>
<!-- Generator: Adobe Illustrator 25.1.0, SVG Export Plug-In . SVG Version: 6.00 Build 0) 
<svg version="1.1" id="Layer_1" xmlns="http://www.w3.org/2000/svg" xmlns:xlink="http://www.w3.org/1999/xlink" x="0px" y="0px"
	 viewBox="0 0 300 300" style="enable-background:new 0 0 300 300;" xml:space="preserve">
<style type="text/css">
	.st0{fill:none;}
	.st1{fill:#F1F2F2;stroke:#FFFFFF;stroke-width:12;stroke-miterlimit:10;}
	.st2{font-family:'Lato-Thin';}
	.st3{font-size:335px;}
</style>
<rect y="-14.69" class="st0" width="300" height="300"/>
<text transform="matrix(1 0 0 1 0.4268 256.4088)" class="st1 st2 st3">I|J</text>
</svg> -->

<svg xmlns="http://www.w3.org/2000/svg" viewBox="0 0 425.96 500">
  <g>
    <path d="M302.35,500c0-1.34.1-2.68.11-4,0-3.8,0-7.59,0-11.38v-2.09a75.1,75.1,0,0,0,9.29-.28,149.89,149.89,0,0,1,27.94-.53,34.61,34.61,0,0,0,12.63-1.85,85,85,0,0,0,8.15-3.06,33.28,33.28,0,0,0,15.17-13.23A57.91,57.91,0,0,0,383,445.51a146.73,146.73,0,0,0,3.68-21.71c.44-5.46.51-10.95.57-16.43q.29-24.42.41-48.83.17-31.95.2-63.89.06-30.54,0-61.09l0-44.11q0-34.83,0-69.67,0-18.56.05-37.11.06-27.57.13-55.13,0-12.6.07-25.21V.46c.69-.05,1.25-.13,1.81-.14C398,.2,406,0,414.06,0c13.62,0,27.23,0,40.84.08,2.26,0,4.53.17,6.79.31a20.36,20.36,0,0,1,2.21.39c0,.73.08,1.41.08,2.1q0,9.45.09,18.9a14,14,0,0,0,.23,1.69V211.85a14.76,14.76,0,0,0-.23,1.86q0,17.67-.06,35.34,0,27,0,54.07-.06,49.62-.15,99.22c0,6.93-.16,13.88-.57,20.8a223.8,223.8,0,0,1-5.23,36,150.09,150.09,0,0,1-13.77,37.46c-.3.57-.65,1.11-.93,1.68a2,2,0,0,1-1.78,1.18c-1.8.08-3.6.17-5.4.3-.85,0-1.7.18-2.56.28Z" transform="translate(-38.34 0)"/>
    <path d="M215.44,500l-3.08-.73V.33a1.84,1.84,0,0,1,.14-.14s.08-.09.13-.1a4.08,4.08,0,0,1,.69-.09h65.43a7.38,7.38,0,0,1,.91.13V500Z" transform="translate(-38.34 0)"/>
    <path d="M114.31,470.69c-25.07.48-49.95.11-75-.15-.07-.8-.15-1.46-.16-2.12-.07-5.42-.16-10.83-.19-16.25q-.16-37.89-.29-75.78-.1-28.53-.18-57.07-.07-59-.1-117.93,0-33.72,0-67.46,0-35.82.07-71.63,0-18.51.12-37c0-7.43.14-14.86.23-22.29,0-.68.06-1.37.1-2.25,1.3-.12,2.5-.31,3.7-.32,11-.15,22-.32,33-.38,12.33,0,24.66,0,37,0h2.24V2.3q0,15.59,0,31.18,0,44.88,0,89.77,0,46.86.07,93.73,0,29.49,0,59,0,55.28.06,110.55c0,22.93-.14,45.86-.25,68.79,0,4.34-.18,8.69-.29,13C114.46,469,114.38,469.69,114.31,470.69Z" transform="translate(-38.34 0)"/>
  </g>
</svg>
