<?xml version="1.0" standalone="no"?>
<!DOCTYPE svg PUBLIC "-//W3C//DTD SVG 20010904//EN"
 "http://www.w3.org/TR/2001/REC-SVG-20010904/DTD/svg10.dtd">
<svg version="1.0" xmlns="http://www.w3.org/2000/svg"
 width="700.000000pt" height="700.000000pt" viewBox="0 0 700.000000 700.000000"
 preserveAspectRatio="xMidYMid meet">
<metadata>
Created by potrace 1.11, written by Peter Selinger 2001-2013
</metadata>
<g transform="translate(0.000000,700.000000) scale(0.100000,-0.100000)"
fill="#000000" stroke="none">
<path d="M3169 6973 c0 -30 0 -6926 1 -6955 0 -17 29 -18 463 -18 l463 0 0
3500 0 3500 -463 0 -463 0 -1 -27z"/>
<path d="M642 6845 c-13 -18 -7 -5955 5 -5963 8 -5 958 -8 1031 -3 10 1 12
602 10 2988 l-3 2988 -518 0 c-349 1 -520 -3 -525 -10z"/>
<path d="M5589 6850 c-1 -3 -3 -1256 -4 -2785 -1 -2422 -5 -2967 -20 -3045 -2
-9 -6 -43 -9 -75 -7 -63 -50 -253 -68 -300 -55 -144 -129 -241 -227 -299 -56
-33 -148 -68 -206 -80 -16 -3 -43 -8 -60 -12 -26 -5 -350 -14 -527 -14 l-58 0
0 -120 0 -120 959 0 c755 0 961 3 969 13 18 21 91 174 122 254 61 159 110 358
139 573 11 83 17 141 27 275 7 88 13 5695 6 5725 -3 14 -64 16 -523 16 -285 0
-520 -3 -520 -6z"/>
</g>
</svg>
